# xmcd
#
# Track frame offsets:
#	150
#	27725
#	30540
#	50527
#	59069
#	126858
#	170093
#	208624
#	224426
#	242001
#
# Disc length: 3354 seconds
#
# Revision: 1
# Processed by: cddbd v1.5.2PL0 Copyright (c) Steve Scherf et al.
# Submitted via: audiograbber 1.83.01
#
DISCID=9c0d180a
DTITLE=Grateful Dead - 74-06-22 Jai-Alai Fronton, Miami FL
DYEAR=1900
DGENRE=
TTITLE0=Ship Of Fools
TTITLE1=Tuning 3
TTITLE2=El Paso
TTITLE3=Tuning 3
TTITLE4=Eyes Of The World
TTITLE5=Wharf Rat
TTITLE6=Sugar Magnolia
TTITLE7=Crowd and Tuning
TTITLE8=Johnny B Goode
TTITLE9=Crowd and PA
EXTD=
EXTT0=
EXTT1=
EXTT2=
EXTT3=
EXTT4=
EXTT5=
EXTT6=
EXTT7=
EXTT8=
EXTT9=
PLAYORDER=
